<?xml version="1.0" encoding="utf-8"?>
<!-- Generator: Adobe Illustrator 24.1.2, SVG Export Plug-In . SVG Version: 6.00 Build 0)  -->
<svg version="1.1" id="_x34_0DiscordLogoNEW-Recovered_xA0_Image_1_"
	 xmlns="http://www.w3.org/2000/svg" xmlns:xlink="http://www.w3.org/1999/xlink" x="0px" y="0px" viewBox="0 0 246.24 228"
	 style="enable-background:new 0 0 246.24 228;" xml:space="preserve">
<g>
	<path d="M102.08,169.68c0,0.77,0,1.37,0,1.97c0,7.27,0.04,14.54-0.04,21.82c-0.01,1.22-0.39,2.54-0.97,3.61
		c-0.74,1.37-2.23,1.79-3.73,1.59c-1.79-0.23-3.16-1.12-3.6-3c-0.17-0.73-0.29-1.49-0.29-2.24c-0.02-8.83-0.03-17.66,0.01-26.49
		c0.01-1.02-0.34-1.53-1.18-2.06c-16.21-10.09-25.7-24.6-28.48-43.48c-0.09-0.63-0.16-1.27-0.23-1.9c-0.08-0.63-0.16-1.26-0.25-2.02
		c-0.44,0-0.87,0-1.3,0c-5.96,0-11.92,0.03-17.88-0.03c-1-0.01-2.11-0.21-2.98-0.69c-2.15-1.18-2.62-4.1-1.16-6.27
		c6.62-9.79,13.24-19.58,19.87-29.37c11.25-16.64,22.55-33.25,33.73-49.94c2.14-3.2,6.29-3,7.73-0.16c0.5,0.99,0.72,2.21,0.73,3.33
		c0.06,7.27,0.03,14.54,0.03,21.82c0,0.43,0,0.87,0,1.44c18.64-6.37,36.48-4.89,53.1,5.62c16.64,10.53,25.5,26.07,27.67,45.62
		c0.48,0,0.91,0,1.34,0c5.6,0,11.2,0,16.8,0c0.24,0,0.48-0.01,0.72,0c1.78,0.12,3.5,0.47,4.34,2.25c0.84,1.79,0.8,3.61-0.35,5.35
		c-9.14,13.77-18.27,27.56-27.4,41.34c-8.4,12.68-16.8,25.37-25.2,38.05c-0.7,1.06-1.35,2.18-2.7,2.59c-1.99,0.6-3.89,0.1-4.96-1.33
		c-1.14-1.52-1.15-3.46,0.01-5.25c2.48-3.82,5.03-7.59,7.55-11.38c13.68-20.64,27.35-41.27,41.02-61.91
		c0.19-0.29,0.37-0.58,0.62-0.99c-3.97,0-7.79,0-11.69,0c-1.89,19.65-10.58,35.45-27.29,46.23
		C138.95,174.53,120.97,176.1,102.08,169.68z M174.16,108.77c-0.06-0.65-0.1-1.24-0.17-1.83c-0.11-0.83-0.21-1.66-0.36-2.49
		c-2.34-12.43-8.35-22.82-18.26-30.59c-15.88-12.46-33.44-14.72-52.25-7.45c-0.8,0.31-1.06,0.73-1.05,1.58
		c0.03,13.22,0.02,26.44,0.02,39.66c0,0.35,0.04,0.7,0.06,1.12C126.17,108.77,150.13,108.77,174.16,108.77z M174.23,117.55
		c-24.1,0-48.07,0-72.1,0c-0.02,0.35-0.04,0.62-0.04,0.9c0,13.66,0.01,27.33-0.03,40.99c0,0.88,0.43,1.14,1.1,1.43
		c10.24,4.39,20.89,5.26,31.6,2.67c16.49-3.98,28.27-13.98,35.38-29.39C172.54,128.92,173.92,123.41,174.23,117.55z M93.34,155.43
		c0-12.85,0-25.37,0-37.89c-7.15,0-14.21,0-21.41,0C73.37,133.37,80.65,145.76,93.34,155.43z M93.36,71.85
		c-12.42,9.43-19.65,21.51-21.36,36.93c7.19,0,14.25,0,21.36,0C93.36,96.52,93.36,84.33,93.36,71.85z M93.43,47.31
		c-0.09-0.04-0.18-0.07-0.27-0.11C79.3,67.69,65.43,88.19,51.51,108.78c4.11,0,7.98,0,11.9,0c0.06-0.41,0.13-0.76,0.17-1.11
		c0.78-6.62,2.36-13.04,5.19-19.09c5.22-11.17,13.14-19.92,23.68-26.32c0.41-0.25,0.93-0.77,0.94-1.17
		C93.45,56.49,93.43,51.9,93.43,47.31z"/>
	<path d="M179.65,184.68c0.25-7.73,5.6-13.69,13.66-13.78c7.9-0.08,13.8,5.62,13.85,13.64c0.05,7.74-5.51,13.68-13.59,13.78
		C185.83,198.41,180.02,192.82,179.65,184.68z M188.05,184.54c-0.01,3.06,2.3,5.42,5.32,5.45c3.03,0.03,5.43-2.31,5.46-5.32
		c0.03-3.08-2.33-5.45-5.44-5.45C190.44,179.22,188.06,181.59,188.05,184.54z"/>
	<path d="M152.21,119.04c8.16,0.37,13.76,6.14,13.68,13.88c-0.09,8.14-6.14,13.72-13.89,13.6c-8.18-0.12-13.7-6.23-13.56-13.93
		C138.59,124.57,144.53,119.32,152.21,119.04z M146.77,132.75c0,3.06,2.3,5.42,5.32,5.45c3.03,0.03,5.43-2.31,5.46-5.32
		c0.03-3.08-2.33-5.44-5.44-5.45C149.16,127.44,146.78,129.81,146.77,132.75z"/>
</g>
</svg>
